<?xml version="1.0" encoding="UTF-8"?>
<svg id="Layer_1" data-name="Layer 1" xmlns="http://www.w3.org/2000/svg" version="1.1" viewBox="0 0 120 120">
  <defs>
    <style>
      .cls-1 {
        fill-rule: evenodd;
      }

      .cls-1, .cls-2 {
        fill: #1f1717;
        stroke-width: 0px;
      }
    </style>
  </defs>
  <g id="Layer_1-2" data-name="Layer 1-2">
    <g id="_1868377839216" data-name=" 1868377839216">
      <path class="cls-1" d="M81.3,32.4v.8c.7,0,4.1-1.8,4.8-1.8h1.1s1.5.5,1.7.6c.2,0,1,.7,1.3.9.8.6,1.6,1.5,2.3,2.2,1.5,1.4,2.7,3.3,4.1,4.8,1.4,1.6,2.5,3.3,4,4.8s1.5,1.4,2.3,2.2.9.8,1.2,1c.2,0,1.5.8,1.5.9s-.6,1.3-.7,1.6c-.2.7-.3,1.2-.5,1.8-.4,1.1-.4,2.7-.5,4-.2,1.5-.3,2.5-.3,4.3s0,3.6,0,4.4c-.5,2.9,0,5.7-1.5,7.6-1.2,1.5-1,1-2.9,1.6-.6.2-3.3.7-3.9.7.4,1.4,3.7,3.1,3.7,5.7,0,3.7-3.8,8.5-5.4,11.1-.5.9-1.1,1.6-1.7,2.5-.5.7-1,1.8-1.5,2.6-.7,1.2-2.1,4.4-2.2,6.2l-1.7-.2h-1.1c-.3,0-2,0-2.5.2-.5,0-1.8.4-2.4.5-1.6.3-2.9.9-4.3,1.2-1.5.4-2.7.9-4.3,1.2-1.1.3-3.7,1-4.7,1h-.9c-2.2,0-3.3-.4-4-1.9-.4-.8-1.7-3.3-1.9-4.1-.7,0-1.9,3-2.4,3.5-1,1.2-1.6,2-3.8,2h-.9c-2.5,0-4.5-.8-6.6-1.2-1.1-.2-5.6-1.4-6.1-1.8-.7,0-2.4-.4-3.3-.6-1.2-.2-2.2-.3-3.5-.3h-.7c-1.2,0-1.6.6-1.8-.4-.1-.8-.3-1.5-.6-2.1-.5-.9-1.1-3.1-1.8-3.6,0-1-3.8-5.9-4.5-7-1-1.6-3.9-5.6-3.9-7.7v-.9c0-1.7,4-4.3,4.2-5.2l-1.3-.2c-1.1-.8-3.3-.4-4.7-1.8-.9-.8-1.8-3.2-1.7-4.8l-.2-.3c0-.9-.2-1.4-.2-2.5v-2.7c0-1.6-.3-3.7-.3-5.2s-.4-4.1-.6-5c-.2-.8-.3-1.5-.5-2.2s-.7-1.2-.9-2c.4,0,2.3-1.4,2.7-1.7.8-.7,1.5-1.5,2.2-2.2,1.4-1.4,2.8-3.2,4-4.8.7-.8,1.1-1.7,1.8-2.6.7-.8,1.3-1.7,2-2.4,1.1-1.1,3.3-3.6,5.3-3.6h.2c1.4,0,4.2,2.1,5.4,2.4,0-1.5-.2-3.3-.2-4.8s1-2.4,1.9-3.2c1-.9,5.3-2.9,6.9-3.4,1-.3,2.6-1,3.7-1.4,1.4-.5,2.4-.9,3.7-1.4.8-.3,2.7-1.2,3.3-1.7.5-.4,1.1-.7,1.5-1,.2-.1,1.4-1.2,1.4-1.2,0,0,2.1,1.6,2.5,1.9.5.3.8.5,1.3.8.6.3.9.4,1.5.7,1,.5,2,.9,3.1,1.2,1.1.3,2,.9,3.1,1.2.9.3,2.2.8,3.2,1.2.7.3,2.3.9,3.1,1.3,1.6.8,4.3,2.1,4.3,4.4v.2l-.6,4.2h0l-.2-.5ZM59.8,31.7c18,0,32.5,14.6,32.5,32.5s-14.6,32.5-32.5,32.5-32.5-14.6-32.5-32.5,14.6-32.5,32.5-32.5Z"/>
      <path class="cls-2" d="M85.8,63.6c0,14.4-11.7,26-26,26s-26-11.7-26-26,11.7-26,26-26,26,11.7,26,26ZM48.3,63.8c0,3.1,2,6,3.6,7.5s4.7,3.1,7.9,3.1,6.2-1.4,7.9-3.1,1.6-1.6,2.4-3.1c.4-.8,1.3-3.1,1.3-4.2v-2c0-5.3-5.4-10.7-10.7-10.7h-1.4c-2.9,0-5.9,1.7-7.5,3.3s-3.5,4.5-3.5,7.1v2h0ZM60.1,74.1h-.2l-3.5-.5v-.2l2.7-.2h4.5c-.3.5-2.7.9-3.5.9ZM52.2,71l.9-.3,1.9,2.2c-.6,0-2.4-1.4-2.7-1.9h-.1ZM64.4,73c0-.2,2.2-2.6,2.2-2.6.5,0,.6.3,1.2.3-.4.6-2.6,2.2-3.4,2.3ZM53.7,70.6c0-.3.7-.5,1-.5.3.7.3.2.6.6s.3.6.5.8c.3.5.6,1,.9,1.5-.3,0-.4,0-.7,0s-2.3-2.3-2.3-2.4h0ZM55.7,70.5c0-.7.7-.9,1.3-.9h.2c.3,0,.6,1.2.8,1.6s.7,1.2.7,1.6h-1.5c-.3-.3-1.5-1.8-1.5-2.2h0ZM63.7,72.9h-1c0-.3.7-1.2.9-1.5,0-.3.8-1.5,1-1.5h.3s.7.3,1.2.3c0,.5-2,2.7-2.4,2.7h0ZM62.1,72.7h-1.4c.2-.4.7-1,.8-1.5,0-.3.5-1.6.7-1.6l1.7.2c0,.6-1.4,2.6-1.8,2.9ZM57.8,69.6h1.8c0,0,0,3.1,0,3.1h-.4l-1.4-3.1h0ZM60,72.7v-3.2h1.6c0,.7-1.2,3-1.6,3.2ZM56.1,69.3l.6-2,.3,1.3.2.5h-1.1v.2ZM50.1,68.2l1.4-.6,1.4,2.5c0,.2-.9.5-.9.5-.6,0-1.6-1.9-1.8-2.4h-.1ZM68,70.3l-1.2-.4,1.3-2.7h0c0,0,1.7.6,1.7.6-.2.8-1.2,2.2-1.7,2.5h-.1ZM51.9,67.3c.5,0,.8-.3,1-.3.3,0,3.1,3,.5,3s-1.4-2.2-1.5-2.7h0ZM66.3,69.7c-.5,0-1.2-.2-1.6-.3l.8-2.4c.2,0,.3,0,.4,0h1.7c0,.3-1,2.6-1.3,2.6ZM64.2,69.3h-2c0,0,.5-2.2.5-2.2l.3-1.1,2.2.3h0c0,0-1,3-1,3h0ZM61.8,69h-1.7v-3.2h2.6s-.9,3.2-.9,3.2ZM58.5,65.8h1.1v3.2h-1.9c0-.5-.4-1.4-.6-2.1,0-.5-.3-.8,0-.9.4,0,.9-.2,1.3-.2h0ZM58.8,65.4h-1.4l-.5.2v-2.5h2.7v2.2h-.8ZM51.1,63.2h2.1v.4c0,1.4,0,3.3-1.5,3.3-.2-1-.6-1.8-.6-3v-.7h0ZM65.4,65.2v.6h-1.2c0,0-.5-.2-.5-.2h-.6c0,0,0-2.5,0-2.5h2.4v1.2l-.2.9h0ZM62.7,65v.4h-2.5v-2.3c0,0,2.6,0,2.6,0v1.2c0,0,0,.7,0,.7h0ZM66.4,64.3l-.4,1.5h-.2v-1.5l.2-1.1h1.7c0,0,.4.3.4.3h.2v.7h-1.9,0ZM50.4,63.1c.4,0,.4,1.2.4,1.5,0,.7.2,1,.2,1.6l.4,1h0l-1.5.6c-.6-1.3-1.1-2.8-1.1-4.7h1.7-.1ZM68.7,63.1h2.2v.8c0,1.4-.6,2.5-.9,3.6l-1.6-.7h0c.4,0,1.4-.5,1.4-.8,0-.8-1.1-1.1-1.1-1.6v-.5l.7.2-.6-.9h0ZM53.7,63.1h.3q0,.4-.3.6v-.6ZM63.2,61.7l.3-.3h.2c0,0,0-.2,0-.2l1-.4h.5v.4c0,0,.2,1.6.2,1.6h-2.4v-1.1h.1ZM60,60.6h.8v.2h0v.4c.3.3.6,1,1,1h.9c0,0,0,.5,0,.5h-2.7s0-2.1,0-2.1ZM51.3,60.8l.3,1.3.4.6h-.8v-1.9h0ZM56.7,61.2c0,0,.6-.8.8-.8h1.8q.3,0,.3.3v1.9h-2.4c-.4,0-.3-.2-.3-.6,0-.2-.2-.2-.2-.4,0,0,0-.4,0-.4ZM53.7,62.7c0-.4,2-1.2,2.4-1.3v.3c0,.3-1.3,1-1.7,1h-.7ZM67,61l.2.2.2.2c.5,0,1-.2,1,.3v.9c-.3-.2-.5-.6-.8-.6s-.2,0-.3.2c0,.3.2.5-.2.5h-.8c-.4,0-.4-1.6-.4-2h.8v-.4l1.1-.3h.2c.3,0,.3,0,.3.5-.3,0-.4-.2-.6-.2s-.4.3-.5.4v.3h-.2ZM70,58.3c.5.9.9,3,.9,4.3h-2.2v-1h.4c0-.5-.6-.5-.6-.9v-.6h1.2l-1-1.3,1.3-.5h0ZM48.7,61.7c0-.7.8-3.6,1.2-3.6s1.3.5,1.4.6c0,.6-.3,1.3-.5,2,0,.4,0,2-.5,2h-1.7v-.9h0ZM60,56.1h1.6l.6,2.1c-.2.3-1.4,1.9-1.6,1.9h-.6v-4h0ZM57.3,57.9c0-.6.3-1.1.4-1.6,0-.6.9-.2,1.6-.2h.3v3.9l-1.9-.2.7-1.6-1.1-.3h0ZM63.9,55.9l.6,1.3h-1.4c-.5,0,0,.3-.6.4,0-.2-.3-1.1-.3-1.2v-.3l1.7-.3h0ZM54.8,57.1s.5-1.5.9-1.4l1.6.3-.5,2-1.2-.3h-.7c0-.2-.2-.4-.2-.6h.1ZM64.3,55.7c.9,0,1.2-.3,1.6-.3s1.1,1.7,1.2,2.1h-2.1c0,0-.7-1.8-.7-1.8ZM60,53.2c.5,0,1.3,1.7,1.3,2.2v.3h-1.3v-2.6h0ZM53.6,55.1l1.4.4-.4,1.2c-.5,0-.3-.2-.8-.2h0c-.6,0-.6.2-1.1.3l1-1.6h-.1ZM58,55.6c0-.6.9-2.4,1.3-2.4h.3v2.5h-1.6ZM66.5,55.3c.3,0,.9-.3,1.1-.3.3,0,2.1,2.4,2.1,3-.3,0-1.2.5-1.3.5-.3,0-1.8-2.9-1.9-3.2ZM50,57.7c0-.7,1.8-2.7,2.3-3l.8.3s-.7,1.4-.9,1.6c0,.3-.7,1.6-.9,1.6h0c0,0-.9-.5-1.2-.5ZM61.9,53.2c.4,0,1.6,1.8,1.6,2.3h-1.7c0,0-1.1-2.3-1.1-2.3h1.2ZM55.7,55.3c0-.4,1.3-2.2,1.6-2.2h1.3l-1.1,2.4h-.6c-.6,0-.7-.2-1.3-.2h0ZM65.6,55.1c0,0-1.1.3-1.3.3s-1.4-2-1.5-2.3h1c.2,0,1.7,1.6,1.8,2h0ZM54.1,54.8c0-.4,1.5-1.9,1.8-1.9h.7c0,.3-1.2,2.2-1.5,2.2s-.7-.2-1-.3h0ZM64.4,52.9c.6,0,2.7,1.3,2.8,1.8h-1c0,0-1.8-1.8-1.8-1.8ZM55.1,52.8c0,.2-1.6,1.9-1.6,1.9,0,0-.7-.3-.9-.4l2.5-1.4h0ZM56.5,52.2c.9,0,1.6-.5,2.9-.5h.8c.8,0,3.1.4,3.4.8l-1.8.2h-2.9l-2.4-.4v-.2h0ZM67.7,82.8h-2.7l2.2,1.5-.8,2.1c.3-.2,2-1.3,2.2-1.3,0,0,1.8,1.2,2.1,1.3l-.9-2.2,2.1-1.4h-2.5l-.7-2.1h0l-.8,2.1h0ZM77.4,59.2l2,1.4-.6,1.9c.5,0,1.5-1,1.9-1s1.7,1,2.1,1.2c0-.8-.7-1.7-.7-2s1.6-1.1,1.8-1.5h-2.4l-.7-2.2h0c-.2.5-.5,1.4-.7,2-.2.4-1.9.2-2.5.2h-.1ZM37.8,59.2h-2.5l2,1.4-.8,2.1h0l2.1-1.3,2.1,1.4h0l-.8-2.2h0l2-1.4h-2.4c-.3-.5-.4-2-.9-2.1l-.7,2.1h0ZM74.1,47.7h-2.5c.3.3,2,1.3,2,1.4,0,.3-.7,1.3-.7,2.1.4,0,2-1.3,2-1.3.4,0,1.7,1.2,2.2,1.3l-.8-2.2,1.9-1.4h-2.5l-.9-2.2-.8,2.2h.1ZM44.4,45.6h0l-.8,2.1h-2.5l2,1.4-.7,2.2,2.1-1.3,2.1,1.2-.6-2.1,1.9-1.3h-2.5l-.7-2.1h-.2ZM49.3,82.9h-2.4l2.1,1.4h0c0,0-.6,2.1-.6,2.1.3-.2,1.7-1.2,2-1.2s1.8,1.1,2,1.2v-.5l-.6-1.5h0l2-1.4h0c0,0-2.5,0-2.5,0l-.8-1.9h-.2c0,.4-.6,1.9-1,1.9h0ZM77.6,72.5h-2.7l2.2,1.5-.8,2.1c.3-.2,2-1.3,2.2-1.3,0,0,1.8,1.2,2,1.3l-.9-2.2,2.1-1.4h-2.5l-.7-2.1h0l-.8,2.1h0ZM39.9,72.5h-2.4l2.1,1.5-.8,2.1c.3,0,2-1.3,2.1-1.3.3,0,1.7,1.2,2.2,1.3l-.8-2.2,2.1-1.4h-2.3c-.3,0-.9-1.7-1-2-.5.3-.6,2-1.1,2h0ZM58.5,41.1h-3.4l2.8,1.8-.8,2.7c.3-.2,2.6-1.5,2.6-1.5,0,0,2.2,1.3,2.7,1.5l-.9-2.6h0l2.9-1.9h-3.4l-1-2.8h0l-1.1,2.8h-.2ZM62.8,80.8c-.7,0-1.7-.2-2.2-.4.4-.5,1.6-.7,2.6-.7h.7c.6,0,1.6,0,1.7.5-.9.2-1.4.6-2.7.6h0ZM54,79.9c.4,0,.5-.3,1.1-.3h1.6c.5,0,1.8.4,2.1.6-.3.5-1.6.5-2.4.5s-2.1-.3-2.4-.8ZM66.3,79.5c0,0-1.4-.6-2.3-.6h-1.3c-1.3,0-2.9,1-2.9,1-.4,0-1.8-1-3.4-1h-.7c-1,0-1.8.3-2.4.6-.3-.2-.6-.6-.6-1v-.4c0-.5.3-.8.6-1,.6.3,1.6.6,2.4.6h.5c.5,0,1.7,0,2-.3.3,0,1.4-.9,1.5-.9.3,0,.3.3.8.5.3,0,.6.2.9.3.6.3,1.3.3,2.2.3h0c1.3,0,1.8-.4,2.7-.6.3.2.5.5.5.9v.3c0,.3-.3,1.2-.5,1.2h0ZM60.7,76c.7,0,.8-.3,1.4-.3h.6c.9,0,2.7.2,2.8.8-.6,0-.9.3-1.6.3h-1.1c-.8,0-1.8-.3-2.1-.8ZM56.6,76.8h-.7c-.6,0-1.7,0-1.8-.6.9-.2,1-.5,2.2-.5h1.2c.7,0,.7.3,1.2.3v.2c-.7.2-1.1.6-2.1.6ZM45.2,62.1c0-3.4,2.4-7.4,4.1-9.1s2.2-2.1,3.9-2.8c1.3-.5,3.3-1.5,5-1.5h2.3c4.1,0,7.5,2.3,9.6,4.4,2.1,2.1,4.1,5.7,4.1,9.8s-1,6-2.3,8.2c-.6,1-4.4,5-5.5,5s-1.7-1-3-1h-1.3c-.7,0-2.2.7-2.3.7s-.8-.4-1.1-.5c-.5,0-.7-.3-1.3-.3h-.7c-.6,0-1.6,0-2.1.3-.4,0-1.3.7-1.5.7-.4,0-2.6-1.8-3-2.2-.7-.7-1.9-1.9-2.4-2.7-1.2-2-2.4-4.7-2.4-7.8v-1.2h0ZM44.4,62.4v.8c0,6.7,4,10.6,8,13.3-.3.4-.6.8-.6,1.4v.5c0,.4.4,1.2.6,1.4,0,.2-.7.7-.7.8,0,.3.3.4.5.5.2,0,.7-.7.8-.7s1,.7,1.6.8c.8,0,1.3.3,2.2.3h.4c.8,0,2.2-.7,2.4-.7s2,.7,2.3.7h1c.7,0,1.2-.2,1.8-.3.3,0,1.5-.7,1.5-.7.3,0,.7.5.9.7l.6-.3h0l-.9-1.1c.3-.4.5-.7.5-1.3v-.8c0-.5-.3-.9-.5-1.2,2.6-1.7,3.8-2.5,5.5-5.2.7-1.1,1.4-2,1.7-3.5.3-1.5.8-2.6.8-4.6v-.4c0-7.8-6.8-15.1-14.5-15.1h-1.1c-4.6,0-8.1,2-10.4,4.3s-1.9,2.2-3.1,4.3c-.6,1.1-1.5,4.2-1.5,5.9h0v.2Z"/>
      <path class="cls-2" d="M8.3,47.7c.7.4,1.3.7,2,1.1.3.3,1,1,1.1,1.3.5,1.3.9,2.2,1.2,3.8.5,2.8.7,6,.7,9.2s.4,6.3,1.1,8.8c.4,1.3.9,2.4,1.6,3.3,1.2,1.5,1.7,1.1,3,2-.8,1.2-1.6,1.8-1.6,3.8v.4c0,3.7,3.8,8.8,5.5,11.2,1.6,2.2,5.6,7.8,5.6,11.1v.5c0,1.2-.6,2.2-.6,3.4,1-.5,1.7-1.2,2.7-1.7.8-.3,2-.5,3.1-.5,1.7,0,3.9.3,5.2.7,1.5.4,3.3.9,4.7,1.4,1.5.5,3.2.7,4.7,1.2.7.3,4.3.6,5.4.6h.3c1,0,2.8-.4,3.4-.7,1.4-.9,1.4-1.2,2.3-1.9.6.4.9,1.4,2,2.1.2,0,1.2.6,1.3.7.4.2,1.3,0,1.6.4h2.3c.2,0,4.1-.8,4.6-1,1.5-.5,2.9-.8,4.3-1.2,2.5-.7,6.1-2,9.2-2h.8c2.1,0,6,2.4,6,2.4-.3-1-1.2-2.4-1.2-3.9,0-4.2,3.4-8.4,5.6-11.7.2-.2.4-.3.5-.6.2-.2.2-.4.4-.7.3-.4.6-.9.8-1.3.5-.9,1-2,1.5-2.7,1.1-1.5,2-4,2-6.4h0c0-2.2-1.1-3-1.2-3.7h.3c1,0,2.5-1.3,3.1-1.9.9-.9,1.3-1.8,1.6-3.2.2-.6.5-1.5.6-2,0-.7,0-1.6.2-2.2,0-1,0-3.6,0-4.7,0-2.4.2-7.3.8-9,.2-.7.3-1.4.5-2,.3-.7.5-1,.8-1.6.8-1.5,2.2-2.1,3.4-3.1h-3.4c-.8,0-2.9-1.2-3.3-1.6-.9-.8-1.7-1.5-2.5-2.4-.6-.6-1.7-2-2.2-2.7-.3-.5-.7-.8-1.1-1.3s-.6-.9-1-1.4c-2.2-2.6-6.5-8.7-10.9-8.7h-1c-.6,0-.8.3-1.3.3v-1.3c0-2.7-3-4.8-4.9-5.8-1.3-.7-2.1-1.2-3.7-1.7-1.1-.3-2.7-1-3.9-1.4-1.3-.5-2.6-.9-3.9-1.5s-1.2-.4-1.8-.8c-.4-.3-3-1.9-3.4-2.1-1.5-.7-3.5-4.6-3.7-4.6-2.1,6.8-7.2,7.3-13.4,9.4-.7.3-1.1.6-1.8.9-.7.2-1.4.4-2,.7-1.2.7-2.5.9-3.6,1.7-.7.5-2.4,1.9-2.9,2.6-.4.6-.7,1-1,1.8-.3.6-.3,1.9-.4,2.2-.5-.1-.8-.5-1.7-.5h-1.4c-1.8,0-4,1.7-5,2.7s-1.3,1.2-1.9,1.9c-.3.3-.6.7-.9,1.1-.2.3-.3.3-.5.6l-.3.3c0,0,0,0-.1,0,0,0-.2,0-.1,0h0c0,0,.1,0,.1,0h.1c-.4.4-2.2,2.7-2.6,3.3-.8,1-1.6,2.2-2.5,3.1-.9,1-1.7,2.1-2.8,2.9-.6.4-1,.9-1.6,1.2-1.6.9-3.3,1.4-5.1,1.8h0v-.3ZM83.5,30.8c.4,0,2.1-.9,2.5-.9h1.4s1.7.5,1.8.6c.5.3,1,.6,1.5,1,1.2.8,1.7,1.3,2.7,2.3s.7.8,1.1,1.3c.5.5.7.9,1.1,1.3.5.5.7.7,1.1,1.3.3.4.7,1.1,1,1.5,2.2,2.6,6.9,8.9,11.1,8.9-.3.4-1.2.9-1.4,1.3-.3.6-.5,1-.8,1.6-.3.8-.8,2.7-.9,3.7-.4,2.6-.5,5.7-.5,8.6s-.2,6.3-.9,8.3c-.5,1.4-.6,2.1-1.6,3.1s-.9.9-1.3,1c-.2,0-1.6.7-1.7.7h-1.4c0,.5.9,1.2,1.2,1.6.3.4.9,1.5.9,2.1v.9c0,4.1-3.6,8.7-5.4,11.4-1.4,2.3-5.6,8-5.6,11.2v1.9l-.6-.3-3.2-.4h-.6c-2.1,0-6.9,1-8.4,1.7-1.3.5-6.6,2.1-8,2.1-.6.4-1.7.4-2.6.4h-.7c-3.5,0-4.4-1.8-5.6-4.1-.5,0-.5.8-.9,1.2-.3.4-.6.8-1,1.2-.5.4-2.3,1.3-3.1,1.3h-1.7c-2.9,0-6.9-1.3-9.4-1.9-2.4-.6-6.3-2.1-9.2-2.1h-2.1c-1,0-2.2.9-3.1,1v-.9c.1,0,.1-.5.1-.5,0-2.6-1.2-4.5-2.1-6.2-.5-1-.9-1.7-1.6-2.5s-1-1.7-1.7-2.5c-.5-.6-1.1-1.8-1.6-2.6-.6-.9-1.1-1.6-1.7-2.5-.9-1.2-2.4-4-2.4-6v-.7c0-2.6,1.7-3.1,2.5-4.5-2.8,0-4.5-2.1-5.3-4.3-.8-2.1-1.3-5.6-1.3-8.4s-.3-6.2-.6-9.1c-.2-1.5-.4-2.7-.9-4-.3-.7-.4-1.1-.8-1.6-.3-.4-1-1-1.1-1.4,2,0,4.8-2.6,6-3.7.9-.8,1.6-1.6,2.2-2.6.6-.9,1.5-1.8,2.2-2.7,1.9-2.5,6.6-9.2,10.3-9.2h1.2c.8,0,2.2,1.3,2.9,1.3l-.3-1.9v-.5c0-1.3.9-2.6,1.6-3.3,1-1,1.8-1.3,3-2.1,2.1-1.4,4.8-1.9,7-3s2.5-.9,3.6-1.3,2.6-.9,3.6-1.4c1.5-.8,5.1-3.7,5.5-5.3.9.6,1.8,2.3,2.9,3.1,3,2.3,6.2,3.5,9.8,4.7,1.2.4,2.4,1,3.5,1.4,1,.4,2.6,1,3.5,1.5,1.6.8,4.7,3,4.4,5.7l-.3,2.3h.2Z"/>
      <path class="cls-2" d="M32.4,56.2l.2-.8c.2,0,.4,0,.6,0,0,0,.3-.3.3-.5,0-.3,0-.5,0-.6,0-.2,0-.3-.2-.3h-.2l-.2.2-.4.6c-.2.4-.5.7-.6.8-.3.2-.5.2-.8,0-.1,0-.3-.2-.4-.3s-.1-.4-.1-.6,0-.5.1-.8c.2-.5.4-.8.7-1s.5-.2.9,0l-.3.8h-.4c-.1,0-.2.3-.3.5s0,.4,0,.6,0,.2.1.2h.3s.3-.3.5-.7c.2-.3.4-.6.5-.8s.3-.3.5-.3h.6c.2,0,.3.2.5.4,0,.2.2.4.2.7s0,.6-.2.9c-.2.5-.4.9-.7,1s-.6.3-1,.2h-.2ZM34.7,52.7l-3-1.6.6-1.1,2.4.5-1.7-1.8.6-1.1,3,1.6-.4.7-2.4-1.2,2,2-.4.7-2.7-.5,2.4,1.3-.3.7v-.2ZM37.1,48.4l-2.7-2,.5-.7,1.2.9-.2-2.3.7-.9v2h2.8l-.6.9h-2v.9l.9.6-.5.7h-.1ZM40.7,43.9l-2.2-2.6.6-.5,2.8.7-1.5-1.8.6-.5,2.2,2.6-.7.6-2.7-.7,1.4,1.7-.6.5h.1ZM47.1,39.3l-.8.5-.7-.5-1.4.9v.9c0,0-.7.5-.7.5l-.4-3.8.7-.5,3.2,2h.1ZM45.1,38.9l-1.2-.8.2,1.4s1-.6,1-.6ZM47.5,39l-1.4-3.1.8-.3.6,1.2,1.5-.7-.6-1.2.8-.3,1.4,3.1-.8.3-.6-1.4-1.5.7.6,1.4-.8.3ZM50.5,34.2l1.5-.4c.3,0,.6,0,.8,0,.3,0,.5,0,.7,0s.4.3.5.4c0,.2.3.4.3.7s0,.5,0,.7c0,.3,0,.5-.3.7s-.3.3-.5.4c-.2,0-.4.2-.7.3l-1.5.4-.9-3.3h.1ZM51.4,34.5l.6,2.2.6-.2c.2,0,.4,0,.5-.2,0,0,.2,0,.3-.2,0,0,0-.2,0-.4v-.6c0-.3-.2-.5-.3-.6l-.3-.3h-.4c0,0-.3,0-.7.2h-.4,0ZM55.5,36.5l-.4-3.4h.8l.4,2.7,2.1-.3v.6l-2.8.3h0ZM62.7,36.2h-.9l-.4-.8h-1.6l-.3.8h-.9l1.6-3.4h.9l1.7,3.4h0ZM61.2,34.8l-.6-1.3-.6,1.3h1.2ZM63.7,36.4l.5-2.8-1.2-.2v-.6l3.3.5v.6l-1.3-.2-.5,2.8h-.8,0ZM67.2,33.6l.8.2-.5,1.8c0,.3,0,.5,0,.6s0,.3.2.4c0,0,.3.2.5.3h.6c0,0,.2,0,.3-.2,0,0,0-.3.2-.6l.5-1.8.8.2-.5,1.7c0,.4-.2.7-.3.8,0,0-.2.3-.4.3s-.3,0-.5,0-.5,0-.8,0c-.4,0-.7-.2-.9-.3-.2,0-.3-.3-.4-.4,0,0,0-.3,0-.4s0-.5.2-.9l.5-1.8h0ZM70.2,38.2l1.4-3.1.8.3-1.2,2.6,1.9.8-.3.5-2.7-1.2h0ZM76.7,37.7l.7.5-1.1,1.5c0,.2-.3.4-.3.5v.4c0,0,.2.3.4.4s.4.2.5.2.3,0,.3,0,.2-.2.4-.5l1.1-1.6.7.5-1,1.5c-.2.3-.4.6-.5.7,0,0-.3.2-.5.2h-.6c-.2,0-.5-.2-.7-.4-.3-.2-.6-.4-.7-.6,0-.2-.2-.4-.2-.5v-.4c0-.2.2-.5.4-.8l1-1.5h0ZM78,43.1l2.3-2.5.6.6-1.9,2.1,1.5,1.4-.4.4-2.2-2h0ZM82.9,48.5l-.6-.7.4-.8-1-1.3-.8.2-.6-.7,3.7-.9.6.7-1.6,3.4h0ZM82.9,46.4l.6-1.2-1.3.4.7.9h0ZM83.1,48.9l3-1.6.6,1.1-1.7,1.8,2.4-.5.6,1.1-3,1.6-.4-.7,2.4-1.3-2.8.5-.4-.7,2-2-2.4,1.3-.4-.7h.1ZM86.4,56.8l-.3-.9.7-.6-.5-1.6h-.9l-.3-.9,3.7.5.3.9-2.7,2.6h0ZM87.2,54.9l1-1h-1.4c0,0,.3,1,.3,1h0Z"/>
      <path class="cls-2" d="M33.3,80.4l2.8-2,.5.7-1.2.9,2.2.5.7.9-2-.5-.8,2.6-.6-.9.7-1.9-.9-.2-.9.6-.5-.7h0ZM35.8,83.9l2.5-2.4,2.1,2.3-.4.4-1.6-1.7-.6.5,1.4,1.5-.4.4-1.4-1.6-.7.7,1.6,1.7-.4.4-2.2-2.3h.1ZM42,85.1l.6.6-1.4,1.6c-.2.2-.3.4-.5.5s-.4,0-.6,0c-.3,0-.5-.2-.8-.4-.3-.3-.5-.5-.5-.9s0-.6.3-.9l.7.5c0,0-.2.3-.2.4,0,.2,0,.3.2.4s.3.2.4.2.3,0,.4-.3l1.5-1.7h-.1ZM44.3,90.8l-.8-.5v-.9c0,0-1.3-.9-1.3-.9l-.7.5-.8-.5,3.2-2,.8.5-.5,3.8h0ZM43.7,88.8l.2-1.4-1.2.8,1,.6ZM47.6,88.7l.7.4-1,1.9c0,.3-.3.4-.4.5-.2,0-.4.2-.6.2-.3,0-.5,0-.9-.3-.4-.2-.6-.4-.7-.7,0-.3,0-.6,0-.9l.8.3c0,.2,0,.3,0,.4,0,.2,0,.3.3.4s.3,0,.4,0c0,0,.2-.2.3-.4l1-2,.2.2ZM51.1,93.7l-.9-.3v-.9c0,0-1.7-.6-1.7-.6l-.6.7-.9-.3,2.7-2.7.9.3.5,3.8ZM50.1,91.9v-1.4c0,0-1.1,1-1.1,1l1.1.4ZM51.6,93.9l.8-3.3,1.7.4c.4,0,.7.2.9.3.2,0,.3.3.4.5v.6c0,.2-.2.4-.4.5s-.5.2-.9,0c.2,0,.3.3.4.4,0,0,.2.3.3.7l.3.8-1-.3-.4-.9c-.2-.3-.3-.5-.3-.6,0,0,0-.2-.2-.2,0,0-.2,0-.4,0h-.2l-.3,1.3-.8-.2h.1ZM52.9,92.1l.6.2c.4,0,.7,0,.8,0h.3s0,0,0-.2v-.3c0-.1,0,0-.3-.2,0,0-.3,0-.6-.2h-.6c0,0-.2.7-.2.7h0ZM57.9,94.9l-.9-3.5h.9l.5,2.4.9-2.3h1l.7,2.4.7-2.4h.9l-1.1,3.4h-.9l-.7-2.6-.9,2.5h-1.1ZM62.5,93.3v-.9c0-.2,0-.4.3-.5s.3-.3.5-.4.5-.3.9-.3c.6,0,1.1,0,1.6.2s.7.6.8,1.2c0,.5,0,1-.3,1.4s-.8.6-1.4.7-1.1,0-1.6-.2-.7-.6-.8-1.1h0ZM63.3,93.1c0,.4.3.7.5.8.3.2.5.2.9,0,.3,0,.6-.2.8-.5.2-.2.2-.5,0-.9,0-.4-.3-.7-.5-.8-.3-.2-.5-.2-.9,0-.3,0-.6.2-.8.5,0,.2-.2.5,0,.9ZM67.4,94.1l-1-3.3.8-.2,2.3,1.7-.6-2.2.7-.2,1,3.3-.8.2-2.2-1.7.6,2.1-.8.2h0ZM70.6,91.3c0-.3-.2-.6-.2-.9s0-.4.2-.6.2-.4.4-.5c.2-.2.5-.3.8-.5.6-.3,1.1-.3,1.5-.2.5,0,.8.5,1.1,1,.2.5.2,1,0,1.4-.2.5-.6.8-1.1,1-.6.3-1.1.3-1.6.2-.5,0-.8-.5-1-.9h-.1ZM71.4,90.9c.2.4.4.6.7.7h.9c.3,0,.5-.4.6-.6,0-.3,0-.6,0-1-.2-.3-.4-.6-.7-.7h-.9c-.3.2-.5.4-.7.6,0,.3,0,.6,0,.9h0ZM74.8,90l.7-.5c.2,0,.3.2.5.3.2,0,.4,0,.6-.2s.4-.3.4-.5v-.4s0,0-.2,0h-.3c0,0-.3,0-.7.2-.4.2-.8.3-1,.3-.3,0-.5,0-.7-.4,0,0,0-.3,0-.5s0-.4.3-.6c0-.2.4-.4.6-.5.5-.3.8-.4,1.2-.4s.6,0,.8.4l-.7.5c0,0-.3-.2-.4-.2s-.3,0-.5.2c-.2,0-.3.3-.4.4v.3s0,0,.2,0,.4,0,.8-.3c.4,0,.7-.3.9-.3h.6c.2,0,.3.2.4.4s.2.4,0,.6c0,.2,0,.4-.3.7,0,.2-.4.4-.7.6-.5.3-.9.4-1.2.4s-.7-.2-.9-.5h0ZM77.7,87.5c-.2-.3-.4-.5-.4-.8v-.6c0-.2,0-.4.2-.6,0-.2.3-.5.6-.7.5-.4.9-.6,1.4-.6s.9.2,1.3.6.5.9.5,1.3-.3.9-.8,1.3-.9.6-1.4.6-.9-.2-1.3-.6h0ZM78.3,86.9c.3.3.5.4.8.4s.6,0,.8-.3.4-.5.4-.8,0-.6-.3-.9-.5-.5-.8-.5-.6,0-.8.3c-.3.2-.4.5-.5.8,0,.3,0,.6.3.9h0ZM79.8,83.5l1.1-1.3c.2-.3.4-.5.5-.5,0,0,.2-.2.4-.3s.3,0,.4,0c.2,0,.3,0,.4,0s.2.3.3.4v.5c.2-.2.4-.2.6-.3.2,0,.4,0,.5.2s.2.2.3.4,0,.3,0,.5,0,.3-.3.5c0,0-.3.4-.6.8l-.9,1.1-2.6-2.2h-.1ZM80.7,83.2l.6.5.3-.4c.2-.3.4-.4.4-.5s0-.2,0-.3,0-.2,0-.3c0,0-.2,0-.3,0,0,0-.2,0-.3.2s-.2.2-.5.5l-.3.4h.1ZM81.8,84.1l.7.6.5-.6c.2-.3.3-.4.3-.5,0,0,0-.2,0-.3s0-.2-.2-.3h-.6s-.3.3-.5.6l-.5.5h.2ZM83.7,81.7c-.3-.2-.5-.4-.7-.6,0-.2-.2-.4-.2-.6v-.6c0-.3.2-.6.4-.9.3-.5.7-.9,1.2-1s.9,0,1.4.2c.5.3.7.7.8,1.2,0,.5,0,1-.4,1.5-.3.5-.7.9-1.2,1s-.9,0-1.4-.2h0ZM84.1,81c.3.2.7.3.9.2s.5-.3.7-.5c.2-.3.3-.6.2-.9s-.3-.5-.6-.7c-.3-.2-.6-.3-.9-.2-.3,0-.5.3-.7.6-.2.3-.3.6-.2.9,0,.3.3.5.6.7h0Z"/>
    </g>
  </g>
</svg>